<?xml version="1.0" encoding="UTF-8" standalone="no"?>
<svg
   xmlns:dc="http://purl.org/dc/elements/1.1/"
   xmlns:cc="http://creativecommons.org/ns#"
   xmlns:rdf="http://www.w3.org/1999/02/22-rdf-syntax-ns#"
   xmlns:svg="http://www.w3.org/2000/svg"
   xmlns="http://www.w3.org/2000/svg"
   xmlns:sodipodi="http://sodipodi.sourceforge.net/DTD/sodipodi-0.dtd"
   xmlns:inkscape="http://www.inkscape.org/namespaces/inkscape"
   viewBox="0 0 1000 494.82501"
   height="494.82501"
   width="1000"
   xml:space="preserve"
   id="svg2"
   version="1.1"
   inkscape:version="0.91 r13725"
   sodipodi:docname="Barbie.svg"><sodipodi:namedview
     pagecolor="#ffffff"
     bordercolor="#666666"
     borderopacity="1"
     objecttolerance="10"
     gridtolerance="10"
     guidetolerance="10"
     inkscape:pageopacity="0"
     inkscape:pageshadow="2"
     inkscape:window-width="1366"
     inkscape:window-height="705"
     id="namedview4235"
     showgrid="false"
     inkscape:zoom="0.47291857"
     inkscape:cx="545.4343"
     inkscape:cy="462.92229"
     inkscape:window-x="-8"
     inkscape:window-y="-8"
     inkscape:window-maximized="1"
     inkscape:current-layer="svg2" /><metadata
     id="metadata8"><rdf:RDF><cc:Work
         rdf:about=""><dc:format>image/svg+xml</dc:format><dc:type
           rdf:resource="http://purl.org/dc/dcmitype/StillImage" /><dc:title></dc:title></cc:Work></rdf:RDF></metadata><defs
     id="defs6"><clipPath
       id="clipPath20"
       clipPathUnits="userSpaceOnUse"><path
         id="path18"
         d="m 1663.62,4432.77 1738.4,0 0,860.207 -1738.4,0 z"
         inkscape:connector-curvature="0" /></clipPath></defs><path
     id="path22"
     style="fill:#ec4399;fill-opacity:1;fill-rule:nonzero;stroke:none"
     d="m 786.50153,231.95581 c 10.22206,4.92984 10.22206,2.31821 12.87968,-1.72573 2.65189,-4.04973 17.80379,-15.71566 17.80379,-15.71566 0,0 14.10495,-8.42156 28.5896,-28.65859 13.85183,-19.39719 1.76598,-32.1446 -9.6756,-43.16049 -11.44733,-11.02167 -37.78774,3.91741 -57.73717,34.25573 -19.96091,30.32107 -2.05936,50.06915 8.1397,55.00474 m 90.48,36.11377 c 2.93948,-2.00184 6.67857,0.92038 4.37761,6.78786 -0.82835,2.09965 -16.98118,45.40394 -64.3122,77.56002 0,0 4.86656,-46.88229 59.93459,-84.34788 M 697.16052,109.15864 c 8.46181,-7.9441 6.18385,0.7651 5.27499,3.4112 0,0 -37.91427,105.47085 -119.39174,200.0293 0,0 43.04547,-136.64325 114.11675,-203.4405 M 211.33317,382.4049 c 0,0 -52.32987,-69.4261 -141.383257,12.24116 L 99.408115,292.83954 c 0,0 31.178185,2.91074 74.706825,-17.33206 0,0 94.10403,2.98551 37.21823,106.89742 m -25.50052,36.82133 c 0,0 -57.39201,56.70742 -76.70293,34.76193 -18.29848,-20.80078 14.67446,-48.80363 27.57716,-55.71229 16.72232,-8.93354 67.33221,-18.26974 49.12577,20.95036 M 133.99748,70.243443 c 0,0 96.73289,-46.38183 138.43227,-22.95795 41.71663,23.42389 29.00951,65.353377 -34.53185,134.934787 0,0 -48.58504,43.59193 -77.57153,55.87912 0,0 -36.55671,5.65466 -47.04339,10.86058 0,0 8.68042,-28.69888 19.09807,-61.53951 12.93147,-40.64667 29.72282,-85.57893 20.40963,-97.480677 -11.32079,-14.51338 -18.7932,-19.69635 -18.7932,-19.69635 M 999.72114,338.57137 c -0.35679,-2.61737 -11.76947,-36.3496 -21.5371,-25.53506 -9.75611,10.82033 -34.77919,51.81218 -115.10037,95.58242 -39.52499,21.53136 -42.60252,-5.52234 -44.56412,-16.46346 0,0 54.60208,-38.2882 82.47261,-89.00161 18.93704,-34.46859 6.73035,-42.32066 -1.01818,-50.1267 -7.04097,-7.06975 -24.63763,-23.05574 -47.50355,-6.3219 -22.86018,16.73957 -77.67508,70.71461 -71.73283,129.88987 -8.89325,9.02556 -34.82522,30.29807 -51.59932,26.50146 -16.77409,-3.81386 0.92038,-39.95063 13.45496,-64.62856 12.49428,-24.56865 36.98812,-44.27648 44.52382,-55.43617 7.53565,-11.15973 3.34213,-14.72626 1.83501,-16.49798 -1.50712,-1.77749 -4.9931,-4.23381 -10.38889,-14.04169 -5.3958,-9.80215 -13.16732,-2.974 -13.16732,-2.974 -36.12526,23.72878 -61.52799,86.3555 -61.52799,86.3555 -7.25959,8.12819 -18.13168,4.94133 -20.21981,4.13597 -3.18108,-1.254 -5.57985,-9.07155 -6.21837,-13.08103 -0.52924,-3.22133 -2.70939,-16.46919 -4.4639,-20.08171 -1.73725,-3.60677 -3.62977,-5.40731 -12.97748,-2.5426 -10.90088,3.33644 -18.71843,10.02649 -21.88225,13.69655 -3.1926,3.67007 -1.70848,4.51568 -0.92616,16.16435 0.37405,5.73516 0.89164,5.89622 -3.13505,15.93996 -6.05157,15.18642 -16.567,34.56636 -19.89766,41.07236 -2.85897,5.6144 -23.56199,33.14553 -31.94903,33.79557 -7.47815,0.58096 -10.23358,-11.40708 -10.23358,-11.40708 0,0 -4.29128,-27.70947 -1.20223,-41.40603 145.11081,-163.50134 181.4432,-278.889347 181.4432,-278.889347 0.65578,-1.95586 4.04394,-8.70346 -6.31043,-24.07971 -13.41466,-19.92639 -27.41032,-19.06931 -27.41032,-19.06931 0,0 -9.77915,-1.254 -31.46583,21.18622 C 548.93188,214.20957 535.22958,364.26174 535.22958,364.26174 c -1.37484,2.80142 -1.90408,3.30762 -7.86932,9.91143 -6.27018,6.94317 -15.41077,11.89601 -15.41077,11.89601 0,0 -8.7667,2.27223 -10.63627,-5.14841 -1.20223,-4.78027 -0.39131,-8.45034 0.25325,-14.87005 0.59827,-5.94798 9.10033,-25.59257 9.10033,-25.59257 0,0 12.80491,-27.74395 15.63511,-35.96994 2.8302,-8.23746 2.16868,-17.3551 -0.45443,-23.79781 -2.62311,-6.43697 -14.40984,-13.04651 -18.19492,-15.62358 -3.67581,-2.50231 -7.61047,-6.33343 -7.09275,-11.80399 0.17818,-1.80054 -1.50717,-3.30193 5.56832,-18.94277 7.09275,-15.65811 -5.97676,-19.45471 -9.7791,-20.10475 -3.79087,-0.65578 -14.29482,-3.8599 -23.90135,4.55592 -17.0157,14.92756 -17.5219,41.0781 -17.5219,41.0781 -0.0518,3.44572 1.20223,6.84541 -0.47172,10.73982 -0.96063,2.23193 -3.31914,6.50022 -9.43974,18.9945 -6.22411,12.67837 -19.31666,38.10989 -27.41033,52.26661 -6.80513,11.91327 -16.21036,25.60408 -22.29067,32.42645 -4.10724,4.6077 -9.60081,8.32954 -9.60081,8.32954 0,0 -6.08608,4.59044 -6.24139,-6.7476 -0.16105,-11.82703 16.12982,-47.92351 16.12982,-47.92351 0,0 11.41857,-28.2272 12.89695,-31.63262 2.08238,-4.83204 3.45146,-11.18851 0.23586,-15.12317 -4.7285,-5.73516 -16.95241,-8.6919 -22.34819,-5.99976 -5.37277,2.70361 -15.02536,19.03479 -20.75478,28.34795 -7.25381,11.79825 -19.01178,34.77345 -32.51274,57.52435 -13.07528,22.00879 -27.65194,29.99891 -27.65194,29.99891 0,0 -7.84631,4.77454 -13.92663,-0.77084 -3.45721,-3.1523 -31.85122,-28.20415 35.80888,-103.57828 27.87053,-31.04587 42.44144,-36.24605 56.93182,-26.05851 5.61437,3.94618 11.1367,10.68804 18.32724,10.88361 12.20666,0.33954 16.2046,-14.71473 16.2046,-14.71473 0.41418,-2.60585 11.10219,-31.31621 -34.53759,-31.82245 -74.07982,-0.81683 -116.46949,82.81775 -116.46949,82.81775 -14.13947,-53.34803 -54.21666,-57.36324 -54.21666,-57.36324 46.12299,-32.42646 72.42886,-53.14095 105.89651,-111.00466 C 352.95243,81.570003 304.21783,35.878423 304.21783,35.878423 283.53208,10.855353 232.88768,-15.254937 147.52735,10.820833 58.341652,38.058583 50.95553,59.768263 42.068022,86.338753 33.169011,112.92651 50.616135,106.06958 61.332915,100.88092 72.038188,95.680693 114.0597,78.521203 114.0597,78.521203 c 0,0 -106.4429895,328.400577 -109.5895694,344.363567 -2.8301961,14.34655 -16.8603766,53.30201 25.7478834,58.577 0,0 6.592286,0.9894 12.603577,-1.20227 6.022798,-2.18016 6.172358,-6.09757 6.172358,-6.09757 2.496557,-9.35923 6.540515,-24.09692 7.639231,-25.56379 23.331862,70.27744 98.83252,49.81029 145.55952,8.61713 33.93935,-29.91263 54.01533,-70.74917 54.01533,-70.74917 28.76791,62.72453 63.47808,29.59626 63.47808,29.59626 14.12222,-11.36677 32.24814,-37.43681 32.24814,-37.43681 10.90661,51.17362 48.94743,29.83786 48.94743,29.83786 17.87856,-10.64775 35.83767,-42.83834 39.36964,-48.69434 20.25432,-33.48489 39.32363,-74.09705 39.32363,-74.09705 0,0 2.55982,0.14971 8.31224,5.15994 5.12541,4.45238 2.61163,11.74643 0.47172,18.48256 -2.13416,6.73034 -10.40614,23.91861 -14.71473,38.60457 -4.41209,15.04258 -5.25196,29.56174 0.65004,42.68302 5.77546,12.83369 22.72208,23.75178 34.31898,25.0576 14.79528,1.67969 28.5666,-10.14156 28.5666,-10.14156 2.11113,37.28154 31.21845,50.47185 31.21845,50.47185 37.95453,19.78834 73.38375,-43.05695 73.38375,-43.05695 24.16021,-39.5192 22.15837,-49.45367 24.23498,-55.50519 2.77843,3.61251 9.68134,7.54717 24.17747,10.37737 -3.88863,13.89786 0.2127,27.45061 0.2127,27.45061 0,0 11.03888,27.86475 35.98146,34.61236 26.73728,7.24232 61.99394,-19.75961 61.99394,-19.75961 0,0 39.99667,68.80484 129.49874,9.03709 89.50781,-59.76201 82.19071,-77.94546 81.83982,-80.57431"
     inkscape:connector-curvature="0" /></svg>